<?xml version="1.0" encoding="UTF-8"?>
<svg id="Brilho" xmlns="http://www.w3.org/2000/svg" viewBox="0 0 152 152">
  <defs>
    <style>
      .cls-1 {
        fill: #ff7300;
      }

      .cls-2 {
        fill: #0013ff;
      }

      .cls-3 {
        fill: #020101;
        stroke: #000;
        stroke-miterlimit: 10;
      }

      .cls-4 {
        fill: #0009fa;
      }
    </style>
  </defs>
  <g id="Fundo">
    <path d="M138.76,110.5c.17-.61,.87-3.09,1.52-5.41,.04-.96,.11-1.92,.12-2.88,0-.59,.04-1.22-.04-1.81-.03-.23-.08-.47-.2-.67-.04-.06-.06-.11-.09-.17l-6.03-4.58s.17-5.79-7.4-8.6c.17,.09-6.47-.51-6.47-.51,0,0-3.15-6.55-10.72-1.53,.09,.17-2.13,5.02,1.53,6.81,.09,.26,.17,2.04-.51,2.04,.63,.24-3.4,.34-3.66-2.21,.26,0-4.94-2.13-7.4-.26-.17-.26-11.84-.44-13.02,1.79-.09,0-.26-12.08-8.94-15.06,0,0,2.34-.59,4.34-2.8,.17,0,3.57,3.56,9.62-1.03,.09-.09,5.36,1.87,8.85-1.7,0-.43,3.15,1.45,6.55-1.62,.26-.43,5.76,4.47,12.22-.6-.13,.09,10.42,4.6,13.06-6.64,.09-.17,1.02-8.68-5.45-11.57-.09-.26-6.13-2.47-9.96,1.36,.24,0-2.57,2.57-2.53,3.56-.31-.73-1.75-3.14-4.87-3.02,.26-.2,.6-3.18-4.17-5.73,.25,.17-5.28-2.55-7.64,2.03-.16-.56-1.73-2.08-6.83-.92,.34-.17-2.45,2.85-2.21,4.59-.09-.38-1.33-3.52-3.4-3.06-.09-.26-3.83-.79-4.85,3.1,.13,.11,.59,2.24,1.87,2.74-1.4,.18-3.52,.98-3.75,3.87-.41-.34-1.01-3.32-3.31-2.98,.26-.17-3.4,0-3.4,0,0,0,.09-2.84-3.4-2.7,0-.11,2.81-9.22-1.11-14.58,.17-.09-9.28-12.09-21.7-11.4,.09,0-19.89-.3-25.28,5.62-.09,0-14.13,8-8.34,19.91,0,0,7.06,8.68,14.04,7.4,.09,.17-.68,7.57-.68,7.57,0,0-6.81-1.11-6.98,4.77,0,.09-2.04,11.83,12.85,16.51,3.8,1.19,7.18,1.21,9.03,1.07,1.56-.12,2.85-.37,3.8-.61-1.62,3.18-2.4,6.02-2.81,8.02-.62,3.07-.64,5.5-.64,7.2,0,3.32,.4,5.8,.57,6.78,.2,1.14,.47,2.6,1.12,4.46,.05,.14,.79,2.23,1.72,3.86,3.63,6.32,11.75,8.41,12.85,8.68,1.73,.42,3.19,.56,4.13,.61,4.84,.77,10.41,.6,15.38-2.2,.27-.15,.54-.31,.8-.48,.29-.25,.71-.62,1.16-1.12,.34-.37,.55-.64,1.1-1.39,.91-1.22,1.36-1.82,1.63-2.2,.7-1,1.06-1.49,1.36-2.03,.16-.28,.79-1.4,.99-2.12,.28,.38,.74,.85,1.15,1.18,1.14,.9,2.41,1.06,3.02,1.13,2.23,.28,6.39-.53,11.38-2.6,.59,.44,4.7,3.46,9.93,2.1,2.94-.76,6.08-3.03,8.71-8.23,.42,.25,13.38,12.19,21.23-1.4,.03-.13,.09-.25,.17-.36Z"/>
    <ellipse cx="63.81" cy="118.72" rx="19.75" ry="11.87"/>
    <ellipse class="cls-3" cx="60.54" cy="100.93" rx="27.99" ry="19.52" transform="translate(-52.98 132.01) rotate(-74.36)"/>
    <ellipse cx="114.06" cy="87.68" rx="5.85" ry="5.55"/>
    <ellipse cx="40.17" cy="45.67" rx="28.34" ry="17.35"/>
    <ellipse cx="27.18" cy="47.97" rx="17.39" ry="14.32"/>
  </g>
  <g id="Camada_3" data-name="Camada 3">
    <path class="cls-4" d="M29.19,39.4s-7.49,4.09-5.45,13.96c-.17,.51-5.28,4.26-11.91,0,.34,.34-4.6-9.19,6.98-17.02,.51-.34,11.74-9.53,30.98-6.3,0,.17,11.49,3.91,10.47,14.04,.17,.09,.51,9.3-7.74,11.29,.17,.2,11.49,9.73-.68,21.73,0,0,0,0,0,0,.02,.03-2.61,2.38-5.11,3.83-2.53,1.47-4.75,1.92-7.06,2.38-3.59,.72-6.37,.62-8.77,.51-5.73-.26-8.38-1.51-9.22-1.93-.42-.21-.76-.41-.99-.54,0,0,0,0,0,0-.04,.03-.65-.55-.68-.58-.52-.5-1.32-2.25-1.28-4.82,.02-.88,.14-2.22,.68-3.79,.42-1.22,1.4-2.2,2.51-2.25,.97-.05,2.17,.71,3.53,3.28,.09,.26,2.3-24.26,8.43-31.91,.09-.09,6.13-4.77,8.85,1.79,.17,.26-4.77,9.53-3.49,11.32-.09,0,7.23-.09,11.06-6.81-.26,0,3.57-8.34-6.81-11.91,.17,.09-11.06-.77-14.3,3.74Z"/>
    <path d="M36.53,62.54c-.35,1.28-.4,1.85-.83,4.05-.51,2.65-.55,2.48-.73,3.7-.53,3.64-.04,4.38,.38,4.68,.16,.11,.32,.18,.64,.24,.69,.14,1.83,.29,3.19,.03,0,0,1.55-.33,3.13-1.31,2.29-1.42,4.62-5.28,5.48-10.49,0-.7-.08-2.01-.92-3.15-2.12-2.89-7.59-2.79-9.35-.6-.33,.41-.55,1.22-.99,2.84Z"/>
  </g>
  <g id="Camada_4" data-name="Camada 4">
    <path class="cls-2" d="M64.97,58.12s.1-.02,.17-.02c.13-.01,.3-.02,.34-.01,.24,.05,.5,1.68-.17,3.22-.22,.5-.76,1.51-2.08,2.35,.26,.09-2.64,.77,0,4,0-.09,1.87,1.36,3.57-3.23,.26-.09,.85-4.17,.85-4.17h2.21s-2.13,6.38-.94,11.66c0,.17,3.32,5.19,8.77-.6,0,.17,4.09,4.51,9.11-1.36,.17,.17,6.47,3.83,9.62-2.72,.26-.09,2.81,4.68,5.62-.34,.09,0-1.36-8.17,1.96-8.6,0,0,1.7-2.21,1.28,8.34-.09,0,3.66,6.3,9.7-1.02,.17-.17,5.7,6.47,11.66-2.55,0,0,.94-1.87,1.36-3.52,.22-.85,.9-3.5-.45-5.78-.53-.89-1.17-1.4-1.32-1.51-1.46-1.1-3.12-1.05-3.78-1.03-3.68,.11-6.09,3.58-6.38,4.01-.46,.59-1.03,1.47-1.46,2.64-.59,1.62-.62,3.05-.56,3.91,.09-.17-3.57,3.74-3.32-1.7,.09,.26,1.62-6.81-4.43-6.21,.09-.09-4.24,1.12-3.83,3.07,.09-.17-.94-4.43,1.79-6.3,.34,.09,1.53-4.77-4.51-2.89,.17,.17-2.72-1.62-3.91,15.06-.09,0-2.64,4.77-3.74-.26,.17,.34,1.06-11.15,2.7-11.49-.15,.34-1.93-4.51-5.59,.26,0-.26-1.45,13.7-3.15,14.13,0,0-2.89,3.66-3.06-1.02,.17,.17-.34-4.34,1.62-4.85-.26,.09-.51-3.82-4.6-2.63,.09,.17-2.64,3.31-2.47,8.85,.09-.09-3.91,4.6-3.49-.26,.09,.26,2.89-9.36-.43-7.4,.43,.26-5.19-.17-5.19-.17,.01-.2,.13-2.26-1.16-3.03-.15-.09-.35-.18-.59-.23-.19,0-.45,.01-.74,.09-.59,.14-.98,.42-1.13,.53-.38,.29-.85,.66-.91,1.26-.07,.68,.42,1.44,.95,1.53,.05,0,.1,.01,.13,0Z"/>
    <path class="cls-2" d="M81.06,52.13c-.7,1.58,.15,3.39,1.66,3.87,1.54,.49,3.21-.58,3.53-2.09,.24-1.14-.33-2.38-1.36-2.94-1.25-.68-2.96-.22-3.83,1.15Z"/>
  </g>
  <g id="Camada_9" data-name="Camada 9">
    <path d="M122.13,54.34c-1.03-.21-2.33,1.73-2.81,3.32-.53,1.78-.36,4.25,.64,4.6,1.02,.35,2.92-1.55,3.38-3.64,.39-1.79-.19-4.07-1.21-4.28Z"/>
  </g>
  <g id="Car">
    <path class="cls-1" d="M67.06,91.4c2.16-3.08,2.66-6.3,1.36-7.74-1.62-1.81-5.76-.54-8,.77-8.93,5.19-10.6,24.09-4.34,28,2.01,1.25,5.43,1.52,7.4-.09,1.38-1.12,2.24-3.31,1.53-4.43-.77-1.21-2.93-.45-3.74-1.79-.54-.89-.17-2.17,.26-2.89,1.39-2.39,5.77-2.93,8.94-1.7,2.58,1,4.7,3.31,5.45,5.96,2.02,7.14-6.67,14.03-7.23,14.47-4.47,3.46-12.94,6.91-19.74,2.98-6.4-3.7-7.37-11.66-7.91-16.17-1.09-8.98,2.32-15.9,4.09-19.49,2.08-4.23,4.06-8.26,8.68-11.23,1.97-1.27,8.91-5.24,16.09-2.38,1.21,.48,6.29,2.51,7.91,7.74,1.33,4.3-.05,9.52-3.57,12.09-2.51,1.83-6.72,2.75-8,1.02-1.17-1.58,.6-4.68,.85-5.11Z"/>
    <g id="Camada_6" data-name="Camada 6">
      <path class="cls-1" d="M86.64,93.79s-9.19,4.43-6.21,18.64c0-.17,1.11,6.3,7.23,4.51-.26,.26,3.83,.34,7.06-5.87-.17,0,.85,8.6,9.96,5.11-.43-.09,5.28-1.56,7.32-10.65,.09,.18,4-8.5,3.4-13.52-.17,.26,1.87-1.11,3.32,0,0,0-3.74,13.96,.51,20.09,0,.34,5.36,4.51,12.17-2.47-.17,.09,3.83-6.21,3.49-10.38,.26,.26,0-6.38-3.49-1.11,0,0-.43,5.45-4.6,5.62,0,.09-2.21-.34-.26-8,.17-.17,3.49-6.64,.09-7.74-.09,.09-5.62-2.13-7.15,1.19,.17-.26-1.53-.77-2.64-.26-.09,0,1.7-5.45-2.55-5.45,.09-.26-5.87-.77-4.77,5.36,.09-.17,.77,1.53,2.13,1.79,0-.17-1.79,12.09-7.06,16.43,0-.17-4.17-2.72-.26-10.13,.17-.17,3.66-7.06-5.62-5.19,0-.26-5.96-.6-12.09,2.04Z"/>
    </g>
    <g id="Camada_8" data-name="Camada 8">
      <path d="M92.51,96.66c-4.01,.82-6.22,10.51-4.02,12,1.23,.83,3.84-.87,5.17-2.3,2.55-2.74,3.22-7.5,1.28-9.13-.64-.54-1.59-.75-2.43-.57Z"/>
    </g>
  </g>
</svg>